G04*
G04 #@! TF.GenerationSoftware,Altium Limited,Altium Designer,24.10.1 (45)*
G04*
G04 Layer_Physical_Order=2*
G04 Layer_Color=16711680*
%FSLAX44Y44*%
%MOMM*%
G71*
G04*
G04 #@! TF.SameCoordinates,E44AC8F9-E291-4C2A-900F-87A1474DBD85*
G04*
G04*
G04 #@! TF.FilePolarity,Positive*
G04*
G01*
G75*
%ADD16C,1.0000*%
%ADD17O,2.2860X1.6510*%
%ADD18O,1.6510X2.2860*%
%ADD19R,1.6510X2.2860*%
%ADD20C,1.9050*%
D16*
X1143000Y889000D02*
X1160272Y871728D01*
X1252728D01*
X1270000Y889000D01*
X1016000D02*
X1033272Y871728D01*
X1125728D01*
X1143000Y889000D01*
X871728Y871728D02*
X889000Y889000D01*
X779272Y871728D02*
X871728D01*
X762000Y889000D02*
X779272Y871728D01*
X889000Y889000D02*
X906272Y871728D01*
X998728D01*
X1016000Y889000D01*
X1143000Y635000D02*
X1160272Y617728D01*
X1252728D01*
X1270000Y635000D01*
X1016000D02*
X1033272Y617728D01*
X1125728D01*
X1143000Y635000D01*
X871728Y617728D02*
X889000Y635000D01*
X779272Y617728D02*
X871728D01*
X762000Y635000D02*
X779272Y617728D01*
X889000Y635000D02*
X906272Y617728D01*
X998728D01*
X1016000Y635000D01*
X1143000Y1016000D02*
X1160272Y998728D01*
X1252728D01*
X1270000Y1016000D01*
X1016000D02*
X1033272Y998728D01*
X1125728D01*
X1143000Y1016000D01*
X871728Y998728D02*
X889000Y1016000D01*
X779272Y998728D02*
X871728D01*
X762000Y1016000D02*
X779272Y998728D01*
X889000Y1016000D02*
X906272Y998728D01*
X998728D01*
X1016000Y1016000D01*
X1143000Y762000D02*
X1160272Y744728D01*
X1252728D01*
X1270000Y762000D01*
X1016000D02*
X1033272Y744728D01*
X1125728D01*
X1143000Y762000D01*
X871728Y744728D02*
X889000Y762000D01*
X779272Y744728D02*
X871728D01*
X762000Y762000D02*
X779272Y744728D01*
X889000Y762000D02*
X906272Y744728D01*
X998728D01*
X1016000Y762000D01*
D17*
X657860Y777494D02*
D03*
Y803148D02*
D03*
Y828040D02*
D03*
Y853694D02*
D03*
D18*
X1089660Y513080D02*
D03*
X1013460D02*
D03*
X1038860D02*
D03*
X1064260D02*
D03*
D19*
X988060D02*
D03*
D20*
X1270000Y635000D02*
D03*
X1320800D02*
D03*
X1143000D02*
D03*
X1193800D02*
D03*
X1016000D02*
D03*
X1066800D02*
D03*
X889000D02*
D03*
X939800D02*
D03*
X762000D02*
D03*
X812800D02*
D03*
X1143000Y762000D02*
D03*
X1193800D02*
D03*
X1016000D02*
D03*
X1066800D02*
D03*
X889000D02*
D03*
X939800D02*
D03*
X1143000Y889000D02*
D03*
X1193800D02*
D03*
X1016000D02*
D03*
X1066800D02*
D03*
X762000D02*
D03*
X812800D02*
D03*
X889000D02*
D03*
X939800D02*
D03*
X1143000Y1016000D02*
D03*
X1193800D02*
D03*
X1016000D02*
D03*
X1066800D02*
D03*
X889000D02*
D03*
X939800D02*
D03*
X1270000Y889000D02*
D03*
X1320800D02*
D03*
X1270000Y1016000D02*
D03*
X1320800D02*
D03*
X762000D02*
D03*
X812800D02*
D03*
X1270000Y762000D02*
D03*
X1320800D02*
D03*
X762000D02*
D03*
X812800D02*
D03*
M02*
