G04*
G04 #@! TF.GenerationSoftware,Altium Limited,Altium Designer,24.10.1 (45)*
G04*
G04 Layer_Color=65535*
%FSLAX44Y44*%
%MOMM*%
G71*
G04*
G04 #@! TF.SameCoordinates,E44AC8F9-E291-4C2A-900F-87A1474DBD85*
G04*
G04*
G04 #@! TF.FilePolarity,Positive*
G04*
G01*
G75*
%ADD10C,0.1778*%
%ADD11C,0.2540*%
G36*
X988060Y499110D02*
X981710Y492760D01*
X994410D01*
X988060Y499110D01*
D02*
G37*
G36*
X643636Y853694D02*
X637286Y860044D01*
Y847344D01*
X643636Y853694D01*
D02*
G37*
D10*
X1311566Y637098D02*
G03*
X1311700Y635000I-16376J-2098D01*
G01*
X1184566Y637098D02*
G03*
X1184700Y635000I-16376J-2098D01*
G01*
X1057566Y637098D02*
G03*
X1057700Y635000I-16376J-2098D01*
G01*
X930566Y637098D02*
G03*
X930700Y635000I-16376J-2098D01*
G01*
X803566Y637098D02*
G03*
X803700Y635000I-16376J-2098D01*
G01*
X1184566Y764098D02*
G03*
X1184700Y762000I-16376J-2098D01*
G01*
X1057566Y764098D02*
G03*
X1057700Y762000I-16376J-2098D01*
G01*
X930566Y764098D02*
G03*
X930700Y762000I-16376J-2098D01*
G01*
X1184566Y891098D02*
G03*
X1184700Y889000I-16376J-2098D01*
G01*
X1057566Y891098D02*
G03*
X1057700Y889000I-16376J-2098D01*
G01*
X803566Y891098D02*
G03*
X803700Y889000I-16376J-2098D01*
G01*
X930566Y891098D02*
G03*
X930700Y889000I-16376J-2098D01*
G01*
X1184566Y1018098D02*
G03*
X1184700Y1016000I-16376J-2098D01*
G01*
X1057566Y1018098D02*
G03*
X1057700Y1016000I-16376J-2098D01*
G01*
X930566Y1018098D02*
G03*
X930700Y1016000I-16376J-2098D01*
G01*
X1311566Y891098D02*
G03*
X1311700Y889000I-16376J-2098D01*
G01*
X1311566Y1018098D02*
G03*
X1311700Y1016000I-16376J-2098D01*
G01*
X803566Y1018098D02*
G03*
X803700Y1016000I-16376J-2098D01*
G01*
X1311566Y764098D02*
G03*
X1311700Y762000I-16376J-2098D01*
G01*
X803566Y764098D02*
G03*
X803700Y762000I-16376J-2098D01*
G01*
X643890Y764794D02*
Y866394D01*
X671830D01*
Y764794D02*
Y866394D01*
X643890Y764794D02*
X671830D01*
X643890Y840994D02*
X671830D01*
X975360Y527050D02*
X1102360D01*
X975360Y499110D02*
X1102360D01*
X975360D02*
Y527050D01*
X1102360Y499110D02*
Y527050D01*
X1000760Y499110D02*
Y527050D01*
X1263650Y666750D02*
X1327150D01*
Y603250D02*
Y666750D01*
X1263650Y603250D02*
X1327150D01*
X1263650D02*
Y666750D01*
X1136650D02*
X1200150D01*
Y603250D02*
Y666750D01*
X1136650Y603250D02*
X1200150D01*
X1136650D02*
Y666750D01*
X1009650D02*
X1073150D01*
Y603250D02*
Y666750D01*
X1009650Y603250D02*
X1073150D01*
X1009650D02*
Y666750D01*
X882650D02*
X946150D01*
Y603250D02*
Y666750D01*
X882650Y603250D02*
X946150D01*
X882650D02*
Y666750D01*
X755650D02*
X819150D01*
Y603250D02*
Y666750D01*
X755650Y603250D02*
X819150D01*
X755650D02*
Y666750D01*
X1136650Y793750D02*
X1200150D01*
Y730250D02*
Y793750D01*
X1136650Y730250D02*
X1200150D01*
X1136650D02*
Y793750D01*
X1009650D02*
X1073150D01*
Y730250D02*
Y793750D01*
X1009650Y730250D02*
X1073150D01*
X1009650D02*
Y793750D01*
X882650D02*
X946150D01*
Y730250D02*
Y793750D01*
X882650Y730250D02*
X946150D01*
X882650D02*
Y793750D01*
X1136650Y920750D02*
X1200150D01*
Y857250D02*
Y920750D01*
X1136650Y857250D02*
X1200150D01*
X1136650D02*
Y920750D01*
X1009650D02*
X1073150D01*
Y857250D02*
Y920750D01*
X1009650Y857250D02*
X1073150D01*
X1009650D02*
Y920750D01*
X755650D02*
X819150D01*
Y857250D02*
Y920750D01*
X755650Y857250D02*
X819150D01*
X755650D02*
Y920750D01*
X882650D02*
X946150D01*
Y857250D02*
Y920750D01*
X882650Y857250D02*
X946150D01*
X882650D02*
Y920750D01*
X1136650Y1047750D02*
X1200150D01*
Y984250D02*
Y1047750D01*
X1136650Y984250D02*
X1200150D01*
X1136650D02*
Y1047750D01*
X1009650D02*
X1073150D01*
Y984250D02*
Y1047750D01*
X1009650Y984250D02*
X1073150D01*
X1009650D02*
Y1047750D01*
X882650D02*
X946150D01*
Y984250D02*
Y1047750D01*
X882650Y984250D02*
X946150D01*
X882650D02*
Y1047750D01*
X1263650Y920750D02*
X1327150D01*
Y857250D02*
Y920750D01*
X1263650Y857250D02*
X1327150D01*
X1263650D02*
Y920750D01*
Y1047750D02*
X1327150D01*
Y984250D02*
Y1047750D01*
X1263650Y984250D02*
X1327150D01*
X1263650D02*
Y1047750D01*
X755650D02*
X819150D01*
Y984250D02*
Y1047750D01*
X755650Y984250D02*
X819150D01*
X755650D02*
Y1047750D01*
X1263650Y793750D02*
X1327150D01*
Y730250D02*
Y793750D01*
X1263650Y730250D02*
X1327150D01*
X1263650D02*
Y793750D01*
X755650D02*
X819150D01*
Y730250D02*
Y793750D01*
X755650Y730250D02*
X819150D01*
X755650D02*
Y793750D01*
D11*
X987041Y548128D02*
X984501Y550667D01*
X979423D01*
X976884Y548128D01*
Y537971D01*
X979423Y535432D01*
X984501D01*
X987041Y537971D01*
X999737Y550667D02*
X994658D01*
X992119Y548128D01*
Y537971D01*
X994658Y535432D01*
X999737D01*
X1002276Y537971D01*
Y548128D01*
X999737Y550667D01*
X1007354D02*
X1017511D01*
X1012432D01*
Y535432D01*
X639826Y890011D02*
Y874776D01*
Y882393D01*
X649983D01*
Y890011D01*
Y874776D01*
X655061D02*
Y884933D01*
X660139Y890011D01*
X665218Y884933D01*
Y874776D01*
Y882393D01*
X655061D01*
X670296Y874776D02*
Y890011D01*
X680453Y874776D01*
Y890011D01*
X695688Y887472D02*
X693149Y890011D01*
X688070D01*
X685531Y887472D01*
Y877315D01*
X688070Y874776D01*
X693149D01*
X695688Y877315D01*
Y882393D01*
X690610D01*
X756922Y694688D02*
X767078Y679453D01*
Y694688D02*
X756922Y679453D01*
X764029Y1071367D02*
X753872D01*
Y1056132D01*
X764029D01*
X753872Y1063749D02*
X758950D01*
X779264Y1058671D02*
Y1068828D01*
X776725Y1071367D01*
X771646D01*
X769107Y1068828D01*
Y1058671D01*
X771646Y1056132D01*
X776725D01*
X774185Y1061210D02*
X779264Y1056132D01*
X776725D02*
X779264Y1058671D01*
X784342Y1071367D02*
Y1058671D01*
X786881Y1056132D01*
X791960D01*
X794499Y1058671D01*
Y1071367D01*
X799577Y1056132D02*
Y1066289D01*
X804656Y1071367D01*
X809734Y1066289D01*
Y1056132D01*
Y1063749D01*
X799577D01*
X814812Y1071367D02*
Y1056132D01*
X824969D01*
X753872Y802383D02*
X758950Y807462D01*
X764029Y802383D01*
X886462Y807722D02*
X889001Y805182D01*
X894079D01*
X896618Y807722D01*
Y817878D01*
X894079Y820417D01*
X889001D01*
X886462Y817878D01*
Y815339D01*
X889001Y812800D01*
X896618D01*
X895352Y943608D02*
X897891Y946148D01*
X902969D01*
X905508Y943608D01*
Y941069D01*
X902969Y938530D01*
X905508Y935991D01*
Y933452D01*
X902969Y930912D01*
X897891D01*
X895352Y933452D01*
Y935991D01*
X897891Y938530D01*
X895352Y941069D01*
Y943608D01*
X897891Y938530D02*
X902969D01*
X886462Y1073148D02*
X896618D01*
Y1070608D01*
X886462Y1060452D01*
Y1057913D01*
X1021078Y821687D02*
X1016000Y819148D01*
X1010922Y814070D01*
Y808992D01*
X1013461Y806452D01*
X1018539D01*
X1021078Y808992D01*
Y811531D01*
X1018539Y814070D01*
X1010922D01*
X1022348Y942337D02*
X1012192D01*
Y934720D01*
X1017270Y937259D01*
X1019809D01*
X1022348Y934720D01*
Y929642D01*
X1019809Y927103D01*
X1014731D01*
X1012192Y929642D01*
X1027429Y1056643D02*
Y1071878D01*
X1019812Y1064260D01*
X1029968D01*
X1141732Y811528D02*
X1144271Y814068D01*
X1149349D01*
X1151888Y811528D01*
Y808989D01*
X1149349Y806450D01*
X1146810D01*
X1149349D01*
X1151888Y803911D01*
Y801372D01*
X1149349Y798832D01*
X1144271D01*
X1141732Y801372D01*
X1146808Y928372D02*
X1136652D01*
X1146808Y938529D01*
Y941068D01*
X1144269Y943607D01*
X1139191D01*
X1136652Y941068D01*
X1149351Y1054102D02*
X1154429D01*
X1151890D01*
Y1069337D01*
X1149351Y1066798D01*
X760732Y943608D02*
X763271Y946148D01*
X768349D01*
X770888Y943608D01*
Y933452D01*
X768349Y930912D01*
X763271D01*
X760732Y933452D01*
Y943608D01*
X1267462Y675642D02*
X1277618Y685798D01*
X882650Y675640D02*
Y678180D01*
X885190D01*
Y675640D01*
X882650D01*
X1261872Y929383D02*
X1272029D01*
X1261872Y1061463D02*
X1272029D01*
X1266950Y1066542D02*
Y1056385D01*
X1261872Y812542D02*
X1272029Y802385D01*
X1261872D02*
X1272029Y812542D01*
X1261872Y807464D02*
X1272029D01*
X1266950Y802385D02*
Y812542D01*
X1139191Y674372D02*
X1144269Y679451D01*
Y684529D01*
X1139191Y689607D01*
X1017269Y678183D02*
X1012191Y683261D01*
Y688339D01*
X1017269Y693418D01*
M02*
