G04*
G04 #@! TF.GenerationSoftware,Altium Limited,Altium Designer,24.10.1 (45)*
G04*
G04 Layer_Color=128*
%FSLAX44Y44*%
%MOMM*%
G71*
G04*
G04 #@! TF.SameCoordinates,E44AC8F9-E291-4C2A-900F-87A1474DBD85*
G04*
G04*
G04 #@! TF.FilePolarity,Positive*
G04*
G01*
G75*
%ADD22C,0.1270*%
D22*
X653288Y777494D02*
X662432D01*
X657860Y772922D02*
Y782066D01*
X653288Y803148D02*
X662432D01*
X657860Y798576D02*
Y807720D01*
X653288Y828040D02*
X662432D01*
X657860Y823468D02*
Y832612D01*
X653288Y853694D02*
X662432D01*
X657860Y849122D02*
Y858266D01*
X1085088Y513080D02*
X1094232D01*
X1089660Y508508D02*
Y517652D01*
X983488Y513080D02*
X992632D01*
X988060Y508508D02*
Y517652D01*
X1008888Y513080D02*
X1018032D01*
X1013460Y508508D02*
Y517652D01*
X1034288Y513080D02*
X1043432D01*
X1038860Y508508D02*
Y517652D01*
X1059688Y513080D02*
X1068832D01*
X1064260Y508508D02*
Y517652D01*
X1266063Y635000D02*
X1273937D01*
X1270000Y631063D02*
Y638937D01*
X1316863Y635000D02*
X1324737D01*
X1320800Y631063D02*
Y638937D01*
X1139063Y635000D02*
X1146937D01*
X1143000Y631063D02*
Y638937D01*
X1189863Y635000D02*
X1197737D01*
X1193800Y631063D02*
Y638937D01*
X1012063Y635000D02*
X1019937D01*
X1016000Y631063D02*
Y638937D01*
X1062863Y635000D02*
X1070737D01*
X1066800Y631063D02*
Y638937D01*
X885063Y635000D02*
X892937D01*
X889000Y631063D02*
Y638937D01*
X935863Y635000D02*
X943737D01*
X939800Y631063D02*
Y638937D01*
X758063Y635000D02*
X765937D01*
X762000Y631063D02*
Y638937D01*
X808863Y635000D02*
X816737D01*
X812800Y631063D02*
Y638937D01*
X1139063Y762000D02*
X1146937D01*
X1143000Y758063D02*
Y765937D01*
X1189863Y762000D02*
X1197737D01*
X1193800Y758063D02*
Y765937D01*
X1012063Y762000D02*
X1019937D01*
X1016000Y758063D02*
Y765937D01*
X1062863Y762000D02*
X1070737D01*
X1066800Y758063D02*
Y765937D01*
X885063Y762000D02*
X892937D01*
X889000Y758063D02*
Y765937D01*
X935863Y762000D02*
X943737D01*
X939800Y758063D02*
Y765937D01*
X1139063Y889000D02*
X1146937D01*
X1143000Y885063D02*
Y892937D01*
X1189863Y889000D02*
X1197737D01*
X1193800Y885063D02*
Y892937D01*
X1012063Y889000D02*
X1019937D01*
X1016000Y885063D02*
Y892937D01*
X1062863Y889000D02*
X1070737D01*
X1066800Y885063D02*
Y892937D01*
X758063Y889000D02*
X765937D01*
X762000Y885063D02*
Y892937D01*
X808863Y889000D02*
X816737D01*
X812800Y885063D02*
Y892937D01*
X885063Y889000D02*
X892937D01*
X889000Y885063D02*
Y892937D01*
X935863Y889000D02*
X943737D01*
X939800Y885063D02*
Y892937D01*
X1139063Y1016000D02*
X1146937D01*
X1143000Y1012063D02*
Y1019937D01*
X1189863Y1016000D02*
X1197737D01*
X1193800Y1012063D02*
Y1019937D01*
X1012063Y1016000D02*
X1019937D01*
X1016000Y1012063D02*
Y1019937D01*
X1062863Y1016000D02*
X1070737D01*
X1066800Y1012063D02*
Y1019937D01*
X885063Y1016000D02*
X892937D01*
X889000Y1012063D02*
Y1019937D01*
X935863Y1016000D02*
X943737D01*
X939800Y1012063D02*
Y1019937D01*
X1266063Y889000D02*
X1273937D01*
X1270000Y885063D02*
Y892937D01*
X1316863Y889000D02*
X1324737D01*
X1320800Y885063D02*
Y892937D01*
X1266063Y1016000D02*
X1273937D01*
X1270000Y1012063D02*
Y1019937D01*
X1316863Y1016000D02*
X1324737D01*
X1320800Y1012063D02*
Y1019937D01*
X758063Y1016000D02*
X765937D01*
X762000Y1012063D02*
Y1019937D01*
X808863Y1016000D02*
X816737D01*
X812800Y1012063D02*
Y1019937D01*
X1266063Y762000D02*
X1273937D01*
X1270000Y758063D02*
Y765937D01*
X1316863Y762000D02*
X1324737D01*
X1320800Y758063D02*
Y765937D01*
X758063Y762000D02*
X765937D01*
X762000Y758063D02*
Y765937D01*
X808863Y762000D02*
X816737D01*
X812800Y758063D02*
Y765937D01*
M02*
