G04*
G04 #@! TF.GenerationSoftware,Altium Limited,Altium Designer,24.10.1 (45)*
G04*
G04 Layer_Color=12632256*
%FSLAX44Y44*%
%MOMM*%
G71*
G04*
G04 #@! TF.SameCoordinates,E44AC8F9-E291-4C2A-900F-87A1474DBD85*
G04*
G04*
G04 #@! TF.FilePolarity,Positive*
G04*
G01*
G75*
%ADD17O,2.2860X1.6510*%
%ADD18O,1.6510X2.2860*%
%ADD19R,1.6510X2.2860*%
%ADD20C,1.9050*%
D17*
X657860Y777494D02*
D03*
Y803148D02*
D03*
Y828040D02*
D03*
Y853694D02*
D03*
D18*
X1089660Y513080D02*
D03*
X1013460D02*
D03*
X1038860D02*
D03*
X1064260D02*
D03*
D19*
X988060D02*
D03*
D20*
X1270000Y635000D02*
D03*
X1320800D02*
D03*
X1143000D02*
D03*
X1193800D02*
D03*
X1016000D02*
D03*
X1066800D02*
D03*
X889000D02*
D03*
X939800D02*
D03*
X762000D02*
D03*
X812800D02*
D03*
X1143000Y762000D02*
D03*
X1193800D02*
D03*
X1016000D02*
D03*
X1066800D02*
D03*
X889000D02*
D03*
X939800D02*
D03*
X1143000Y889000D02*
D03*
X1193800D02*
D03*
X1016000D02*
D03*
X1066800D02*
D03*
X762000D02*
D03*
X812800D02*
D03*
X889000D02*
D03*
X939800D02*
D03*
X1143000Y1016000D02*
D03*
X1193800D02*
D03*
X1016000D02*
D03*
X1066800D02*
D03*
X889000D02*
D03*
X939800D02*
D03*
X1270000Y889000D02*
D03*
X1320800D02*
D03*
X1270000Y1016000D02*
D03*
X1320800D02*
D03*
X762000D02*
D03*
X812800D02*
D03*
X1270000Y762000D02*
D03*
X1320800D02*
D03*
X762000D02*
D03*
X812800D02*
D03*
M02*
