G04*
G04 #@! TF.GenerationSoftware,Altium Limited,Altium Designer,24.10.1 (45)*
G04*
G04 Layer_Color=16711935*
%FSLAX44Y44*%
%MOMM*%
G71*
G04*
G04 #@! TF.SameCoordinates,E44AC8F9-E291-4C2A-900F-87A1474DBD85*
G04*
G04*
G04 #@! TF.FilePolarity,Negative*
G04*
G01*
G75*
%ADD12O,2.4892X1.8542*%
%ADD13O,1.8542X2.4892*%
%ADD14R,1.8542X2.4892*%
%ADD15C,2.1082*%
D12*
X657860Y777494D02*
D03*
Y803148D02*
D03*
Y828040D02*
D03*
Y853694D02*
D03*
D13*
X1089660Y513080D02*
D03*
X1013460D02*
D03*
X1038860D02*
D03*
X1064260D02*
D03*
D14*
X988060D02*
D03*
D15*
X1270000Y635000D02*
D03*
X1320800D02*
D03*
X1143000D02*
D03*
X1193800D02*
D03*
X1016000D02*
D03*
X1066800D02*
D03*
X889000D02*
D03*
X939800D02*
D03*
X762000D02*
D03*
X812800D02*
D03*
X1143000Y762000D02*
D03*
X1193800D02*
D03*
X1016000D02*
D03*
X1066800D02*
D03*
X889000D02*
D03*
X939800D02*
D03*
X1143000Y889000D02*
D03*
X1193800D02*
D03*
X1016000D02*
D03*
X1066800D02*
D03*
X762000D02*
D03*
X812800D02*
D03*
X889000D02*
D03*
X939800D02*
D03*
X1143000Y1016000D02*
D03*
X1193800D02*
D03*
X1016000D02*
D03*
X1066800D02*
D03*
X889000D02*
D03*
X939800D02*
D03*
X1270000Y889000D02*
D03*
X1320800D02*
D03*
X1270000Y1016000D02*
D03*
X1320800D02*
D03*
X762000D02*
D03*
X812800D02*
D03*
X1270000Y762000D02*
D03*
X1320800D02*
D03*
X762000D02*
D03*
X812800D02*
D03*
M02*
