G04*
G04 #@! TF.GenerationSoftware,Altium Limited,Altium Designer,24.10.1 (45)*
G04*
G04 Layer_Physical_Order=1*
G04 Layer_Color=255*
%FSLAX44Y44*%
%MOMM*%
G71*
G04*
G04 #@! TF.SameCoordinates,E44AC8F9-E291-4C2A-900F-87A1474DBD85*
G04*
G04*
G04 #@! TF.FilePolarity,Positive*
G04*
G01*
G75*
%ADD11C,0.2540*%
%ADD16C,1.0000*%
%ADD17O,2.2860X1.6510*%
%ADD18O,1.6510X2.2860*%
%ADD19R,1.6510X2.2860*%
%ADD20C,1.9050*%
D11*
X1165860Y504190D02*
Y519425D01*
X1176017Y504190D01*
Y519425D01*
X1181095D02*
Y504190D01*
Y511808D01*
X1191252D01*
Y519425D01*
Y504190D01*
X1203948Y519425D02*
X1198869D01*
X1196330Y516886D01*
Y506729D01*
X1198869Y504190D01*
X1203948D01*
X1206487Y506729D01*
Y516886D01*
X1203948Y519425D01*
X1211565Y504190D02*
Y519425D01*
X1216644Y514347D01*
X1221722Y519425D01*
Y504190D01*
X1226800D02*
X1231879D01*
X1229340D01*
Y519425D01*
X1226800Y516886D01*
X1239496Y504190D02*
X1244575D01*
X1242035D01*
Y519425D01*
X1239496Y516886D01*
D16*
X657860Y803148D02*
X723392D01*
X755650Y770890D01*
X701040Y828040D02*
X762000Y889000D01*
X657860Y828040D02*
X701040D01*
X1296670Y556260D02*
X1320800Y580390D01*
Y635000D01*
X1186952Y556260D02*
X1296670D01*
X1143772Y513080D02*
X1186952Y556260D01*
X1089660Y513080D02*
X1143772D01*
X812800Y563880D02*
Y635000D01*
X863600Y513080D02*
X988060D01*
X812800Y563880D02*
X863600Y513080D01*
X1013460D02*
Y561340D01*
X939800Y635000D02*
X1013460Y561340D01*
X1038860Y513080D02*
Y607060D01*
X1066800Y635000D01*
X1064260Y513080D02*
Y546100D01*
X1092200Y574040D01*
X1132840D01*
X1193800Y635000D01*
X657860Y711962D02*
Y777494D01*
Y711962D02*
X734822Y635000D01*
X762000D01*
X657860Y853694D02*
Y911860D01*
X762000Y1016000D01*
X1193800Y889000D02*
Y1016000D01*
Y762000D02*
Y889000D01*
Y635000D02*
Y762000D01*
X1066800Y889000D02*
Y1016000D01*
Y762000D02*
Y889000D01*
Y635000D02*
Y762000D01*
X939800Y635000D02*
Y762000D01*
Y889000D01*
Y1016000D01*
X1320800Y635000D02*
Y762000D01*
Y889000D01*
Y1016000D01*
X812800Y635000D02*
Y762000D01*
Y889000D01*
Y1016000D01*
D17*
X657860Y777494D02*
D03*
Y803148D02*
D03*
Y828040D02*
D03*
Y853694D02*
D03*
D18*
X1089660Y513080D02*
D03*
X1013460D02*
D03*
X1038860D02*
D03*
X1064260D02*
D03*
D19*
X988060D02*
D03*
D20*
X1270000Y635000D02*
D03*
X1320800D02*
D03*
X1143000D02*
D03*
X1193800D02*
D03*
X1016000D02*
D03*
X1066800D02*
D03*
X889000D02*
D03*
X939800D02*
D03*
X762000D02*
D03*
X812800D02*
D03*
X1143000Y762000D02*
D03*
X1193800D02*
D03*
X1016000D02*
D03*
X1066800D02*
D03*
X889000D02*
D03*
X939800D02*
D03*
X1143000Y889000D02*
D03*
X1193800D02*
D03*
X1016000D02*
D03*
X1066800D02*
D03*
X762000D02*
D03*
X812800D02*
D03*
X889000D02*
D03*
X939800D02*
D03*
X1143000Y1016000D02*
D03*
X1193800D02*
D03*
X1016000D02*
D03*
X1066800D02*
D03*
X889000D02*
D03*
X939800D02*
D03*
X1270000Y889000D02*
D03*
X1320800D02*
D03*
X1270000Y1016000D02*
D03*
X1320800D02*
D03*
X762000D02*
D03*
X812800D02*
D03*
X1270000Y762000D02*
D03*
X1320800D02*
D03*
X762000D02*
D03*
X812800D02*
D03*
M02*
