M48
;Layer_Color=9474304
;FILE_FORMAT=2:4
INCH,LZ
;TYPE=PLATED
T01F00S00C0.0310
T02F00S00C0.0360
%
T01
X047Y025
X05
X052
Y03
X05
X047
X045
X042
X04
X037
X035
X032
Y025
X035
X037
X04
X042
X045
X03
Y03
Y035
Y04
X032
X035
X037
X04
X042
X045
Y035
X042
X04
X037
X035
X032
X047
X05
X052
Y04
X05
X047
T02
X0389Y0202
X0399
X0409
X0419
X0429
X0259Y03061
Y03162
Y0326
Y03361
M30
